<?xml version="1.0" standalone="no"?>
<!DOCTYPE svg PUBLIC "-//W3C//DTD SVG 20010904//EN"
 "http://www.w3.org/TR/2001/REC-SVG-20010904/DTD/svg10.dtd">
<svg version="1.0" xmlns="http://www.w3.org/2000/svg"
 width="266.000000pt" height="199.000000pt" viewBox="0 0 266.000000 199.000000"
 preserveAspectRatio="xMidYMid meet">

<g transform="translate(0.000000,199.000000) scale(0.100000,-0.100000)"
fill="#000000" stroke="none">
<path d="M964 1898 c-21 -23 -13 -33 15 -18 23 12 45 5 36 -11 -4 -5 0 -9 7
-9 9 -1 7 -5 -4 -14 -10 -7 -18 -21 -18 -30 0 -23 -19 -20 -48 7 -22 21 -24
21 -37 4 -13 -18 -29 -23 -99 -34 -25 -4 -41 -2 -46 7 -13 21 -22 -43 -10 -74
7 -19 7 -47 0 -89 -7 -42 -6 -65 1 -74 17 -19 3 -43 -25 -43 -41 0 -79 -20
-109 -56 -22 -26 -36 -34 -62 -34 -42 0 -57 -19 -62 -78 -3 -26 -6 -56 -7 -67
-2 -11 2 -31 9 -45 12 -25 15 -51 35 -285 12 -151 18 -188 35 -250 7 -27 16
-73 20 -102 4 -29 12 -56 18 -61 7 -5 42 -15 80 -23 62 -12 67 -14 67 -39 0
-20 8 -30 36 -44 l37 -17 -23 -16 c-19 -13 -24 -13 -31 -2 -6 10 -9 11 -10 2
-2 -16 -2 -40 0 -52 1 -11 116 -51 146 -51 18 0 20 -5 17 -37 -2 -22 -15 -49
-29 -64 l-24 -27 32 -11 c48 -17 59 -14 59 14 0 17 8 29 25 37 14 6 30 24 37
40 12 27 16 29 53 24 22 -4 35 -3 29 1 -6 5 -17 19 -23 31 -12 22 -11 23 11
16 35 -11 63 -53 36 -55 -17 -1 73 -29 92 -29 13 0 13 1 0 10 -12 7 -8 10 15
10 18 0 37 -8 48 -20 13 -16 29 -20 79 -20 45 0 59 3 48 10 -8 5 -24 10 -36
10 -29 0 -74 23 -74 37 0 7 7 10 15 7 8 -4 15 -1 15 5 0 10 -13 15 -31 13 -12
-2 -4 33 11 46 13 11 11 12 -10 10 -14 -1 -31 1 -38 6 -7 4 -12 4 -11 -1 5
-28 -2 -73 -11 -68 -6 4 -7 11 -4 17 5 7 0 9 -14 6 -12 -4 -20 -2 -16 3 3 5
12 9 20 9 8 0 14 4 14 9 0 6 -9 8 -20 6 -12 -2 -18 0 -15 6 4 5 11 6 17 3 6
-4 8 1 3 15 -10 33 31 45 67 19 16 -11 32 -17 37 -14 5 4 21 2 35 -4 22 -8 26
-7 26 10 0 13 -8 20 -27 22 l-28 4 27 8 c21 6 34 2 63 -20 l36 -27 74 18 c74
19 75 19 75 52 0 38 12 42 33 12 13 -17 19 -19 36 -10 12 7 21 21 21 33 0 12
3 18 7 14 5 -4 8 -43 9 -87 1 -78 0 -80 -28 -95 -29 -15 -39 -30 -13 -20 17 6
21 -9 5 -19 -6 -3 -10 -13 -10 -22 0 -13 5 -12 27 8 20 18 25 20 20 7 -4 -10
-3 -18 0 -18 11 0 54 53 64 78 5 12 15 22 24 22 8 0 27 19 41 42 15 24 35 49
46 56 26 19 23 42 -6 42 -39 0 -86 12 -86 22 0 5 4 7 9 3 6 -3 14 3 20 12 6
10 11 12 11 6 0 -7 7 -13 15 -13 10 0 15 9 14 28 l-1 27 -8 -25 -8 -25 -1 28
c-1 15 4 27 10 27 6 0 9 7 5 15 -4 10 1 15 14 15 11 0 20 -4 20 -10 0 -5 10
-10 23 -10 18 0 19 2 7 10 -13 8 -12 10 3 10 22 0 22 12 -3 40 -22 25 -26 35
-10 25 6 -4 5 5 -2 19 -8 19 -8 39 -1 71 6 24 8 47 5 50 -3 3 -25 5 -49 5 -38
0 -43 -3 -43 -22 0 -34 -14 -52 -27 -36 -18 24 -12 55 12 68 14 7 22 18 18 24
-3 6 0 5 8 -1 14 -14 30 -17 27 -5 -6 21 15 52 36 52 47 0 86 21 86 46 0 32
28 31 36 -1 8 -30 36 -33 63 -6 11 11 21 15 23 10 7 -21 36 18 41 56 3 22 3
34 0 28 -6 -17 -24 -17 -22 0 1 6 1 31 0 53 -1 38 -3 41 -25 37 -13 -3 -26
-14 -29 -24 -4 -13 -14 -19 -34 -19 -22 0 -25 -2 -13 -11 11 -8 9 -9 -10 -3
-14 4 -26 10 -28 14 -4 11 -62 -1 -62 -14 0 -6 -9 -12 -20 -12 -10 0 -17 2
-15 5 3 2 -2 12 -11 22 -9 10 -21 52 -27 95 -10 74 -10 78 12 95 12 10 29 15
37 12 9 -3 19 6 29 30 14 35 15 35 51 26 48 -14 56 -3 11 16 -19 8 -38 19 -42
25 -3 5 -13 10 -21 10 -9 0 -24 10 -35 23 l-18 22 -1 -36 c0 -20 -6 -42 -14
-48 -12 -10 -15 -4 -18 36 -3 37 1 52 17 71 l21 24 18 -41 c19 -41 38 -52 52
-29 5 8 2 9 -10 5 -14 -6 -23 6 -48 61 -16 37 -32 68 -33 70 -8 9 -55 -32 -51
-44 3 -7 -2 -15 -10 -18 -24 -9 -24 -8 -8 22 16 31 18 61 4 82 -8 12 -10 10
-10 -8 0 -30 -24 -24 -28 7 -2 12 -10 25 -18 28 -8 3 -14 9 -14 14 0 11 33 -1
42 -15 4 -6 9 -2 13 9 4 11 14 33 22 49 13 24 13 30 2 37 -9 6 -18 3 -26 -7
-11 -14 -13 -13 -19 10 -7 31 -11 32 -34 6 -15 -17 -22 -19 -44 -10 -31 11
-32 21 -8 43 23 21 36 21 65 3 39 -24 64 -28 81 -11 21 21 23 53 2 36 -12 -10
-15 -8 -18 11 -2 16 -12 25 -33 29 -27 6 -26 7 11 8 51 1 68 26 28 41 -35 14
-44 13 -44 -4 0 -26 -21 -29 -50 -7 -21 15 -37 19 -59 15 -17 -4 -31 -2 -31 3
0 4 -18 7 -40 5 l-40 -4 0 -54 0 -55 -49 7 c-44 6 -49 4 -54 -17 -9 -32 0 -40
37 -33 23 4 44 0 72 -15 21 -12 53 -24 71 -27 32 -6 47 -18 48 -39 1 -11 19
-81 37 -138 11 -38 12 -38 24 -15 11 21 13 21 19 5 11 -28 -4 -68 -36 -96 -16
-14 -29 -31 -29 -39 0 -7 -7 -15 -15 -18 -8 -4 -12 -11 -8 -18 5 -8 3 -8 -8 0
-8 7 -32 10 -59 7 -25 -3 -61 -5 -80 -5 -19 0 -26 -2 -15 -5 11 -3 25 -10 30
-15 7 -8 4 -9 -8 -5 -11 4 -16 3 -12 -3 3 -6 14 -10 23 -10 18 0 52 -33 52
-50 0 -6 5 -10 11 -10 5 0 7 -5 3 -12 -4 -7 9 -2 29 9 l37 22 -2 -24 c-2 -25
-8 -29 -40 -26 -26 3 -22 -8 15 -40 31 -28 32 -28 12 -43 -11 -9 -16 -16 -11
-16 5 0 3 -7 -4 -15 -8 -9 -21 -13 -34 -10 -15 5 -17 4 -8 -3 11 -7 11 -10 -2
-15 -9 -4 -16 -13 -16 -22 0 -12 -14 -15 -69 -15 -67 0 -69 1 -74 27 -3 15 -1
36 4 45 5 10 6 18 1 18 -13 0 -13 58 0 89 l11 26 7 -35 c7 -34 7 -34 9 -6 0
16 -6 37 -14 46 -12 14 -13 23 -3 51 6 19 16 37 22 41 8 5 7 8 -1 8 -20 0 -15
20 5 20 11 0 13 3 6 8 -7 4 -14 16 -17 27 -3 16 -6 13 -12 -14 -7 -30 -10 -33
-39 -28 -17 3 -65 11 -106 18 -41 6 -80 13 -86 14 -15 4 -5 55 11 55 20 0 2
73 -26 108 -13 17 -32 32 -43 35 -10 3 -15 10 -11 17 4 6 12 9 19 7 42 -16 58
-18 52 -8 -4 6 -16 11 -26 11 -10 0 -32 11 -47 25 l-28 24 40 1 c39 0 39 0 16
16 l-23 16 29 19 c15 10 43 19 61 19 22 0 32 5 32 15 0 9 7 18 15 21 8 4 13
10 10 14 -3 4 3 14 12 21 14 12 15 11 9 -9 -6 -17 -3 -22 12 -22 26 0 33 -10
21 -31 -8 -16 -5 -21 15 -31 31 -14 43 -45 23 -61 -8 -7 -19 -30 -24 -52 -6
-22 -12 -47 -14 -55 -3 -10 3 -15 16 -15 12 0 21 9 25 25 4 14 12 24 18 22 7
-1 12 5 12 13 0 10 10 15 30 15 33 0 38 11 16 29 -8 7 -15 20 -15 29 -1 42 -9
65 -24 73 -13 8 -14 15 -7 35 8 21 6 26 -16 34 -14 6 -31 10 -38 10 -18 0 -35
21 -29 36 3 8 11 14 19 14 8 0 14 7 14 15 0 11 12 15 48 15 84 0 78 17 -10 24
-49 4 -84 3 -86 -3 -2 -5 -13 -6 -25 -3 l-22 5 20 -23 20 -23 -20 5 c-11 3
-28 9 -37 13 -26 10 -22 -9 7 -41 14 -15 23 -29 21 -31 -6 -6 -140 23 -160 34
-15 8 -15 12 4 36 12 15 28 27 36 27 8 0 14 5 14 10 0 6 -24 11 -52 11 -29 1
-79 2 -110 4 -45 2 -61 -2 -74 -17z m138 -123 c-4 -23 -2 -25 37 -25 40 0 41
0 22 -19 -27 -27 -55 -29 -80 -7 -20 18 -30 43 -12 32 4 -3 13 6 19 19 15 32
21 32 14 0z m594 9 c-3 -9 -6 -20 -6 -25 0 -5 -7 -9 -15 -9 -18 0 -18 5 -5 31
13 23 35 26 26 3z m-476 -14 c0 -5 -5 -10 -11 -10 -5 0 -7 5 -4 10 3 6 8 10
11 10 2 0 4 -4 4 -10z m360 -36 c0 -14 -4 -23 -9 -20 -5 3 -7 15 -4 26 7 28
13 25 13 -6z m-770 -4 c0 -5 -7 -10 -16 -10 -8 0 -12 5 -9 10 3 6 10 10 16 10
5 0 9 -4 9 -10z m847 -16 c-3 -3 -12 -4 -19 -1 -8 3 -5 6 6 6 11 1 17 -2 13
-5z m-763 -184 c13 -136 15 -165 8 -135 -8 35 -40 42 -58 12 -8 -14 -10 -7
-10 36 1 38 7 61 19 74 9 11 17 27 17 35 0 18 11 50 15 46 2 -2 6 -32 9 -68z
m-294 -170 c-12 -29 -30 -32 -30 -5 0 16 30 48 38 41 2 -3 -1 -19 -8 -36z
m305 -10 c3 -5 1 -10 -6 -10 -9 0 -9 -3 1 -15 14 -17 10 -50 -8 -51 -37 -4
-37 -4 -23 -13 10 -7 12 -21 7 -55 -4 -25 -11 -46 -15 -46 -4 0 -31 7 -60 16
-40 11 -51 19 -47 30 3 9 6 20 6 25 0 6 5 7 10 4 11 -7 33 42 25 55 -3 5 -2
22 2 37 l7 28 6 -25 c4 -17 15 -26 38 -31 24 -5 32 -3 32 7 0 8 -8 14 -17 14
-10 0 -25 5 -33 10 -13 9 -13 11 0 20 20 13 67 13 75 0z m239 -53 c64 -11 102
-36 59 -38 -92 -4 -115 0 -138 25 -28 31 -26 31 79 13z m262 -68 c4 -6 0 -15
-7 -20 -11 -7 -9 -9 7 -9 31 0 35 -9 20 -45 -12 -29 -12 -36 1 -56 15 -20 15
-23 0 -34 -10 -7 -17 -16 -17 -21 0 -10 -216 -7 -240 3 -8 4 -26 8 -40 9 -53
6 -167 33 -217 52 l-51 19 -11 -23 c-6 -13 -14 -24 -19 -24 -15 0 -22 12 -15
24 11 17 12 37 2 30 -16 -10 -79 17 -79 33 0 11 3 13 13 5 6 -6 30 -13 52 -17
22 -3 65 -17 95 -30 59 -26 147 -30 183 -9 17 10 18 12 1 46 -24 51 -14 70 33
63 21 -4 55 -3 76 2 61 13 205 14 213 2z m-631 -120 c17 -6 25 -13 17 -16 -24
-9 -72 18 -72 40 0 19 1 19 13 4 6 -9 26 -21 42 -28z m160 -58 c37 -12 77 -21
90 -21 12 0 30 -8 39 -19 9 -10 31 -21 47 -25 19 -3 29 -11 27 -18 -6 -18 -57
-19 -92 -2 -16 8 -47 14 -68 14 -47 0 -74 13 -110 53 -30 33 -36 52 -14 44 7
-3 44 -15 81 -26z m1155 -11 c0 -5 -4 -10 -10 -10 -5 0 -10 5 -10 10 0 6 5 10
10 10 6 0 10 -4 10 -10z m-716 -27 c4 -9 -4 -11 -24 -6 -29 5 -42 -9 -20 -22
5 -3 8 -32 6 -65 l-3 -58 36 5 c20 3 37 7 39 8 2 2 9 75 11 118 1 25 3 26 21
15 11 -7 20 -18 20 -24 0 -16 23 -24 49 -17 12 3 21 1 21 -6 0 -6 -3 -10 -7
-10 -5 1 -15 1 -22 0 -12 -1 -13 -3 -2 -13 10 -11 17 -7 37 17 l24 30 0 -42
c0 -49 14 -54 75 -29 31 13 35 13 35 0 0 -8 -7 -17 -15 -20 -8 -3 -17 -14 -20
-25 -4 -10 -13 -19 -21 -19 -20 0 -17 -11 11 -44 14 -16 25 -35 25 -43 0 -17
4 -16 39 1 27 15 28 14 23 -10 -2 -13 -8 -26 -12 -29 -5 -3 -6 -33 -3 -68 3
-41 1 -57 -5 -48 -11 15 -27 -2 -18 -18 3 -5 -1 -12 -10 -15 -10 -4 -14 -13
-10 -22 5 -12 1 -14 -15 -9 -14 5 -19 3 -15 -3 10 -17 -36 -41 -85 -46 -24 -2
-36 -2 -26 1 9 2 18 14 19 26 2 41 3 46 10 53 4 4 14 2 22 -5 11 -9 22 -8 50
6 37 17 47 33 21 33 -25 0 -17 28 13 45 15 9 18 13 7 9 -11 -4 -35 -9 -52 -12
-33 -4 -33 -4 -33 37 0 30 4 41 15 41 13 0 14 4 4 22 -6 12 -15 33 -20 47 -6
23 -8 22 -9 -14 -1 -22 -3 -44 -5 -50 -1 -5 -3 -28 -5 -50 -1 -22 -4 -32 -7
-22 -2 9 -12 18 -21 18 -15 1 -14 2 1 6 28 7 16 39 -13 35 -23 -2 -23 -1 5 12
30 14 30 14 5 16 -25 1 -25 1 -2 10 12 5 22 12 22 16 0 3 -7 4 -15 0 -9 -3
-15 0 -15 10 0 8 -4 12 -10 9 -5 -3 -10 -2 -10 3 0 5 14 15 32 23 17 7 26 15
20 17 -6 2 -20 -2 -31 -8 -12 -6 -21 -7 -21 -1 0 5 14 14 30 20 17 5 30 13 30
17 0 3 -7 4 -15 1 -18 -7 -30 9 -13 16 7 3 -2 3 -19 0 -33 -5 -33 -5 -34 38
-1 37 -3 32 -13 -31 l-11 -75 -50 -3 c-56 -4 -89 -27 -100 -70 -4 -15 -12 -30
-18 -34 -22 -14 -56 -8 -67 12 -6 11 -21 20 -33 20 -28 0 -47 18 -40 37 4 9
-3 16 -17 20 -16 4 -18 8 -8 14 7 5 14 13 14 19 1 5 2 14 3 19 0 5 15 9 32 9
17 -1 35 5 39 12 7 11 11 11 23 1 13 -10 17 -9 26 6 10 17 10 17 11 1 0 -11 8
-18 20 -18 16 0 20 7 20 30 0 34 -26 50 -81 50 -27 0 -29 3 -29 38 0 35 1 37
34 37 19 0 32 -3 29 -7 -6 -11 11 -10 23 1 20 19 92 22 98 4z m29 -30 c-7 -2
-21 -2 -30 0 -10 3 -4 5 12 5 17 0 24 -2 18 -5z m384 -30 c-3 -10 -5 -4 -5 12
0 17 2 24 5 18 2 -7 2 -21 0 -30z m46 -16 c3 -12 9 -33 13 -46 l7 -24 -22 22
c-26 26 -38 83 -16 75 7 -3 15 -15 18 -27z m47 -56 c0 -6 -4 -13 -10 -16 -5
-3 -10 1 -10 9 0 9 5 16 10 16 6 0 10 -4 10 -9z m-380 -23 c0 -4 -4 -8 -9 -8
-5 0 -12 -8 -14 -17 -3 -12 -5 -9 -6 8 -1 17 4 26 14 26 8 0 15 -4 15 -9z
m180 -69 c0 -10 -4 -19 -10 -19 -5 0 -10 12 -10 26 0 14 4 23 10 19 6 -3 10
-15 10 -26z m-200 -24 c0 -8 -4 -15 -10 -15 -5 0 -10 7 -10 15 0 8 5 15 10 15
6 0 10 -7 10 -15z m-414 -52 c-7 -7 -26 7 -26 19 0 6 6 6 15 -2 9 -7 13 -15
11 -17z m754 2 c10 -12 10 -15 -4 -15 -9 0 -16 7 -16 15 0 8 2 15 4 15 2 0 9
-7 16 -15z m-803 -27 c-3 -8 -6 -5 -6 6 -1 11 2 17 5 13 3 -3 4 -12 1 -19z
m371 -10 c16 -16 15 -28 -3 -28 -8 0 -14 -3 -14 -7 6 -35 -2 -38 -83 -39 -46
-1 -77 1 -70 3 6 3 12 9 12 14 0 5 -10 4 -22 -2 -22 -12 -22 -11 -8 6 9 11 10
16 3 11 -7 -4 -13 -3 -13 3 0 6 -8 7 -17 4 -11 -4 -13 -8 -5 -11 7 -2 -4 -15
-23 -28 -41 -28 -90 -32 -99 -8 -5 14 0 15 31 12 45 -6 84 9 76 28 -3 8 0 14
6 14 6 0 11 7 11 15 0 9 9 15 21 15 14 0 19 -5 16 -14 -4 -10 -1 -13 9 -9 7 3
14 9 14 14 0 14 30 11 31 -3 0 -10 2 -10 6 0 2 6 8 10 11 8 6 -3 37 1 93 13 3
0 10 -4 17 -11z m-258 -28 c0 -16 -2 -30 -4 -30 -2 0 -6 14 -8 30 -3 17 -1 30
4 30 4 0 8 -13 8 -30z m427 -24 c-3 -8 -1 -16 6 -19 6 -2 4 -6 -6 -10 -12 -5
-17 -1 -17 12 0 17 8 31 18 31 2 0 2 -6 -1 -14z m-784 -37 c7 -25 3 -24 -17 6
-13 19 -13 23 -2 19 8 -3 16 -14 19 -25z m613 -34 c-6 -29 -4 -35 11 -35 12 0
18 -8 19 -24 2 -28 -24 -36 -117 -36 -48 0 -59 3 -59 16 0 12 -7 15 -27 10
-16 -3 -22 -3 -15 0 21 10 13 24 -14 24 -20 0 -25 4 -20 16 3 9 6 19 6 24 0
14 51 21 66 9 13 -10 12 -14 -1 -29 -22 -24 -19 -27 22 -28 40 -2 78 25 94 66
5 12 16 22 25 22 13 0 15 -7 10 -35z m-592 -11 c4 -10 1 -14 -6 -12 -15 5 -23
28 -10 28 5 0 13 -7 16 -16z m366 -101 c0 -2 -7 -3 -16 -3 -11 0 -13 -6 -9
-19 8 -26 -12 -37 -33 -18 -10 9 -28 13 -43 10 -32 -6 -59 19 -52 47 6 22 14
23 83 11 l46 -7 -3 30 c-3 28 -2 27 12 -9 8 -22 15 -41 15 -42z m-296 52 c3
-8 1 -15 -4 -15 -6 0 -10 7 -10 15 0 8 2 15 4 15 2 0 6 -7 10 -15z m616 -9 c0
-2 -7 -6 -15 -10 -8 -3 -15 -1 -15 4 0 6 7 10 15 10 8 0 15 -2 15 -4z m50 -37
c0 -7 -11 -9 -30 -5 -17 3 -30 1 -30 -4 0 -6 -7 -10 -15 -10 -16 0 -20 12 -8
23 11 12 83 8 83 -4z m-628 -87 c-6 -2 -10 -8 -6 -13 6 -11 -24 -11 -51 1 -17
7 -17 9 -2 9 9 1 17 5 17 10 0 4 12 6 28 3 15 -3 21 -7 14 -10z m252 -25 c4
-19 3 -26 -4 -22 -5 3 -10 18 -10 32 0 32 5 28 14 -10z m-93 -15 c7 -35 4 -37
-38 -21 l-28 11 24 9 c15 6 21 14 17 25 -4 10 -1 14 6 12 7 -3 15 -19 19 -36z"/>
<path d="M861 1234 c0 -11 3 -14 6 -6 3 7 2 16 -1 19 -3 4 -6 -2 -5 -13z"/>
<path d="M1238 1053 c7 -3 16 -2 19 1 4 3 -2 6 -13 5 -11 0 -14 -3 -6 -6z"/>
<path d="M1505 920 c-13 -6 -15 -9 -5 -9 8 0 22 4 30 9 18 12 2 12 -25 0z"/>
<path d="M1143 833 c1 -18 7 -23 29 -23 15 0 29 4 32 9 4 5 -4 7 -16 4 -19 -4
-20 -3 -8 7 13 10 11 11 -7 7 -12 -3 -24 0 -27 7 -2 6 -3 1 -3 -11z"/>
<path d="M1220 825 c0 -8 5 -15 10 -15 6 0 10 7 10 15 0 8 -4 15 -10 15 -5 0
-10 -7 -10 -15z"/>
<path d="M1525 800 c3 -5 8 -10 11 -10 2 0 4 5 4 10 0 6 -5 10 -11 10 -5 0 -7
-4 -4 -10z"/>
<path d="M1238 1903 c6 -2 18 -2 25 0 6 3 1 5 -13 5 -14 0 -19 -2 -12 -5z"/>
<path d="M1871 1643 c0 -6 -4 -20 -7 -30 -5 -14 -4 -15 5 -7 7 7 11 20 8 30
-3 11 -5 14 -6 7z"/>
<path d="M1579 1410 c0 -3 -2 -15 -3 -27 -4 -32 -9 -35 -40 -23 -24 9 -27 8
-24 -7 2 -13 14 -18 40 -19 31 -2 37 2 42 22 4 14 2 32 -3 42 -6 9 -11 15 -12
12z"/>
<path d="M2113 1306 c6 -39 0 -51 -20 -34 -11 9 -12 7 -7 -7 8 -19 5 -19 -71
1 -15 4 -16 3 -6 -4 10 -7 3 -12 -28 -17 -63 -10 -55 -24 25 -40 17 -3 46 -17
65 -31 18 -13 43 -24 56 -24 21 0 23 3 17 39 -4 24 -2 41 5 45 12 8 15 64 5
90 -3 9 -15 16 -26 16 -18 0 -20 -5 -15 -34z"/>
<path d="M1518 1263 c-64 -5 -62 -23 2 -23 38 0 50 4 50 15 0 8 -1 14 -2 13
-2 -1 -24 -3 -50 -5z"/>
<path d="M1560 1091 c0 -6 -19 -12 -42 -14 l-43 -4 48 -1 c36 -2 47 2 47 13 0
8 -2 15 -5 15 -3 0 -5 -4 -5 -9z"/>
<path d="M1477 1053 c-9 -3 -15 -9 -12 -14 8 -12 105 -12 105 1 0 6 -3 10 -7
11 -5 0 -21 2 -38 3 -16 2 -38 1 -48 -1z"/>
<path d="M2137 903 c-4 -3 -7 -18 -7 -32 0 -14 -4 -21 -8 -16 -9 13 -32 17
-32 6 0 -5 -2 -16 -5 -24 -4 -9 1 -13 15 -12 29 2 45 21 46 55 1 32 1 33 -9
23z"/>
<path d="M1922 850 c0 -19 2 -27 5 -17 2 9 2 25 0 35 -3 9 -5 1 -5 -18z"/>
<path d="M1897 863 c-4 -3 -7 -16 -6 -27 0 -19 1 -19 10 3 10 24 8 36 -4 24z"/>
<path d="M2045 820 c-3 -5 1 -10 9 -10 9 0 16 5 16 10 0 6 -4 10 -9 10 -6 0
-13 -4 -16 -10z"/>
<path d="M2067 622 c-15 -10 -24 -22 -20 -25 3 -4 1 -7 -6 -7 -7 0 -11 -7 -8
-14 4 -11 1 -13 -11 -9 -14 6 -15 4 -4 -9 10 -12 8 -20 -13 -42 -20 -21 -21
-26 -7 -26 17 1 64 30 47 30 -4 0 -1 8 8 18 8 9 19 31 23 47 4 17 11 36 17 43
13 17 7 15 -26 -6z"/>
<path d="M2007 614 c-8 -8 1 -24 14 -24 5 0 9 7 9 15 0 15 -12 20 -23 9z"/>
<path d="M1922 530 c0 -14 2 -19 5 -12 2 6 2 18 0 25 -3 6 -5 1 -5 -13z"/>
<path d="M1942 530 c0 -14 2 -19 5 -12 2 6 2 18 0 25 -3 6 -5 1 -5 -13z"/>
<path d="M1890 525 c0 -8 5 -15 10 -15 6 0 10 7 10 15 0 8 -4 15 -10 15 -5 0
-10 -7 -10 -15z"/>
<path d="M1907 386 c-22 -29 -24 -36 -12 -46 8 -6 24 -10 37 -8 19 2 22 9 23
42 0 51 -16 55 -48 12z"/>
<path d="M1332 348 c-19 -19 -14 -37 9 -31 16 4 17 8 7 14 -10 7 -10 9 0 9 6
0 12 5 12 10 0 14 -13 13 -28 -2z"/>
<path d="M1412 330 c5 -36 -7 -40 -16 -5 -4 14 -10 25 -15 25 -5 0 -5 -15 1
-33 9 -30 13 -32 44 -29 19 2 37 8 39 13 3 4 -4 6 -15 4 -23 -4 -26 5 -7 24
10 11 10 13 0 7 -8 -4 -13 -1 -13 8 0 9 -5 16 -11 16 -7 0 -10 -12 -7 -30z"/>
<path d="M1346 295 c4 -8 10 -15 15 -15 4 0 6 7 3 15 -4 8 -10 15 -15 15 -4 0
-6 -7 -3 -15z"/>
<path d="M1510 301 c-21 -6 -25 -13 -23 -40 2 -42 4 -44 51 -36 33 5 41 11 45
33 10 50 -9 61 -73 43z"/>
<path d="M1635 230 c-3 -5 3 -10 14 -10 12 0 21 5 21 10 0 6 -6 10 -14 10 -8
0 -18 -4 -21 -10z"/>
<path d="M1402 160 c3 -30 1 -53 -5 -57 -6 -4 -3 -10 9 -14 16 -6 14 -8 -11
-9 -28 -2 -27 -3 10 -11 62 -12 91 -11 77 3 -14 14 -16 58 -2 58 5 0 14 9 20
20 9 17 7 22 -12 30 -13 5 -17 9 -10 9 6 1 12 6 12 11 0 6 -21 10 -46 10 l-47
0 5 -50z"/>
<path d="M1500 189 c0 -5 5 -7 10 -4 6 3 10 8 10 11 0 2 -4 4 -10 4 -5 0 -10
-5 -10 -11z"/>
</g>
</svg>
