<?xml version="1.0" standalone="no"?>
<!DOCTYPE svg PUBLIC "-//W3C//DTD SVG 20010904//EN"
 "http://www.w3.org/TR/2001/REC-SVG-20010904/DTD/svg10.dtd">
<svg version="1.0" xmlns="http://www.w3.org/2000/svg"
 width="500.000000pt" height="500.000000pt" viewBox="0 0 500.000000 500.000000"
 preserveAspectRatio="xMidYMid meet">

<g transform="translate(0.000000,500.000000) scale(0.100000,-0.100000)"
fill="#000000" stroke="none">
<path d="M2170 4810 c-229 -35 -420 -242 -420 -456 0 -34 -7 -67 -21 -93 -16
-31 -20 -58 -20 -123 -1 -46 4 -95 10 -110 9 -24 7 -28 -27 -51 -61 -40 -122
-108 -153 -169 -29 -57 -30 -58 -72 -58 -92 -1 -221 -66 -306 -154 -19 -20
-43 -36 -52 -36 -25 0 -148 -139 -224 -253 -63 -95 -93 -166 -79 -188 3 -6 -5
-32 -19 -57 -14 -26 -29 -65 -32 -87 -4 -22 -13 -51 -20 -65 -31 -61 -39 -137
-26 -250 22 -210 57 -266 181 -295 41 -10 120 -19 175 -20 70 -2 109 -7 130
-19 17 -9 40 -16 53 -16 21 0 22 -4 22 -80 l0 -80 -319 0 -319 0 -6 26 c-4 15
-5 29 -2 32 3 3 90 18 193 33 104 15 179 27 168 28 -85 4 -346 23 -373 27 -27
4 -33 9 -30 27 3 19 12 23 66 31 92 14 81 27 -36 42 -48 6 -52 8 -52 34 0 24
5 29 38 34 72 13 70 11 59 65 l-9 49 -60 -5 -59 -6 3 64 3 63 42 11 c49 12 48
11 57 49 l7 28 -56 -7 -55 -6 0 33 c0 30 5 36 53 61 28 15 63 36 77 47 l25 20
-30 -5 c-16 -2 -49 -7 -73 -10 l-43 -5 7 37 c9 54 18 60 83 68 67 8 76 12 86
43 l7 24 -77 -7 -78 -8 7 29 c11 43 21 50 86 64 34 7 63 16 65 20 3 4 -22 11
-55 14 -33 4 -60 10 -60 14 1 19 19 30 60 37 24 4 60 13 80 21 34 12 34 13
-37 13 -40 1 -73 4 -73 7 0 25 30 46 97 68 43 15 103 42 133 62 l55 35 -107
-7 c-60 -4 -108 -4 -108 0 0 11 40 88 62 119 11 15 27 27 36 27 9 0 69 12 132
27 l115 28 -75 7 c-41 4 -89 10 -107 13 l-32 6 63 82 c143 185 361 365 580
479 50 26 86 48 79 48 -7 0 -26 29 -42 64 -42 87 -52 94 -105 75 -81 -30 -276
-179 -411 -314 -264 -263 -412 -496 -519 -815 -78 -232 -90 -311 -90 -565 0
-191 3 -234 22 -325 19 -88 68 -246 96 -312 7 -14 -7 -16 -126 -20 -105 -3
-140 -7 -168 -22 -34 -18 -50 -33 -50 -48 0 -5 274 -8 610 -8 615 0 676 -3
745 -37 55 -28 134 -114 155 -171 29 -76 29 -336 0 -399 -19 -43 -94 -102
-129 -103 -9 -1 2 -10 24 -22 49 -25 92 -64 113 -103 14 -25 17 -60 17 -200 0
-197 -2 -203 -89 -282 -116 -106 -281 -137 -788 -150 l-268 -6 0 620 0 620
-23 34 c-30 45 -71 58 -188 58 l-97 1 -6 -36 c-10 -52 2 -93 40 -141 19 -23
34 -46 34 -52 0 -6 19 -11 45 -11 l45 0 0 -617 0 -616 347 6 c482 8 630 26
811 97 147 58 352 90 621 96 165 5 183 3 172 -10 -8 -9 -17 -14 -21 -11 -5 3
-12 0 -16 -7 -4 -7 -4 -10 1 -6 4 4 14 0 22 -10 9 -11 12 -11 7 -2 -6 12 -4
13 7 3 22 -22 122 -16 153 8 14 11 26 24 26 28 0 3 -30 56 -66 116 -37 61 -73
125 -80 143 l-14 32 49 0 50 0 49 -82 c28 -46 67 -114 87 -153 64 -120 57
-117 111 -41 26 36 50 66 54 66 3 0 14 -16 23 -35 15 -32 20 -35 61 -35 54 0
238 -23 393 -50 76 -12 139 -30 190 -54 136 -61 372 -95 683 -97 129 -1 152 1
205 21 79 30 163 115 196 197 l24 58 3 544 c2 369 -1 561 -8 597 -25 121 -107
234 -213 294 l-55 31 29 71 c37 89 81 250 71 259 -4 3 -59 25 -122 49 -63 23
-136 53 -162 66 l-48 24 -19 -39 c-19 -35 -19 -39 -3 -35 9 2 60 -11 112 -29
81 -28 95 -35 92 -52 -2 -11 -7 -23 -10 -27 -4 -4 -48 -1 -97 7 -146 24 -163
18 -54 -19 138 -48 140 -50 127 -87 -6 -17 -16 -33 -23 -35 -10 -4 -117 21
-380 92 -11 3 36 -25 105 -61 69 -37 146 -80 171 -96 25 -16 51 -29 57 -29 7
0 12 -7 12 -15 0 -13 -36 -15 -264 -15 l-263 0 -6 73 c-3 39 -14 93 -26 119
l-20 48 54 54 c40 39 58 67 67 100 8 30 18 46 28 46 8 -1 49 -14 90 -30 41
-17 81 -30 88 -30 39 0 92 74 92 130 0 45 97 30 163 -26 16 -13 37 -24 47 -24
10 0 67 -18 127 -40 l108 -40 22 23 c25 24 63 122 63 161 0 13 -6 29 -13 35
-29 24 -232 82 -287 83 -52 0 -115 14 -134 29 -9 8 -3 38 33 163 l20 69 -68
-5 c-49 -4 -80 -12 -113 -32 -54 -32 -71 -34 -32 -4 52 39 50 42 -7 10 -31
-18 -64 -32 -73 -32 -10 0 -151 43 -314 97 -163 53 -314 101 -334 107 -35 9
-38 13 -38 48 0 27 5 40 20 48 28 15 50 62 50 107 0 63 -30 89 -150 129 -59
20 -116 33 -130 30 -20 -4 -29 1 -42 24 -13 22 -31 33 -82 49 -36 11 -77 28
-91 37 -18 12 -37 15 -63 11 -66 -11 -69 0 -34 98 18 48 32 105 32 126 0 22 9
56 20 76 11 21 23 53 26 73 4 19 18 47 32 62 55 59 49 234 -13 366 -94 199
-334 325 -555 292z m-32 -101 c-87 -36 -144 -85 -178 -153 -22 -46 -40 -60
-40 -31 0 9 7 30 16 48 44 86 92 123 197 152 85 23 87 16 5 -16z m294 -16 c78
-25 138 -72 190 -149 53 -78 58 -90 26 -73 -28 15 -137 5 -180 -17 -65 -33
-68 -38 -70 -148 0 -56 -3 -85 -5 -66 -1 19 -6 73 -10 120 l-8 85 -5 -85 -5
-85 -45 1 c-25 0 -62 4 -82 8 -30 5 -36 10 -31 24 6 15 5 15 -10 3 -15 -12
-17 -10 -17 20 0 21 -14 55 -35 89 -20 30 -35 67 -35 84 0 29 0 29 -21 10
l-22 -19 7 40 c4 21 14 51 21 66 12 23 27 37 90 87 6 5 16 7 23 4 6 -2 12 1
12 7 0 25 130 21 212 -6z m-434 -247 c60 -31 102 -78 101 -114 -1 -27 -1 -27
-10 4 -11 37 -39 64 -104 98 -57 29 -135 45 -135 27 0 -6 8 -11 18 -11 57 0
150 -55 129 -77 -3 -2 -8 5 -12 16 -6 20 -83 51 -125 51 -24 0 -31 11 -18 28
17 20 94 10 156 -22z m675 -8 c9 -11 17 -25 17 -30 0 -6 -8 -1 -17 11 -10 11
-31 28 -48 37 l-30 16 30 -7 c17 -3 38 -15 48 -27z m-737 -34 c50 -21 41 -23
-26 -5 -49 13 -64 13 -80 3 -24 -15 -26 -9 -4 13 18 17 49 14 110 -11z m683
11 c16 -8 32 -22 35 -32 6 -14 3 -13 -16 4 -13 12 -34 26 -48 32 -14 5 -19 10
-12 10 7 1 26 -6 41 -14z m-32 -26 c11 -4 24 -12 27 -18 6 -9 -3 -6 -74 27
l-25 12 25 -6 c14 -4 35 -10 47 -15z m110 -61 c-2 -13 -4 -3 -4 22 0 25 2 35
4 23 2 -13 2 -33 0 -45z m-146 37 c19 -8 29 -14 23 -15 -7 0 -27 7 -45 15 -19
8 -29 14 -23 15 7 0 27 -7 45 -15z m-513 -130 l-1 -40 -7 40 c-4 22 -10 58
-13 80 l-6 40 13 -40 c8 -22 14 -58 14 -80z m627 56 c-9 -16 -225 -34 -225
-20 0 5 26 9 58 10 31 0 75 4 97 8 56 12 77 12 70 2z m-721 -15 c35 -14 55
-61 35 -81 -7 -7 -8 -3 -3 10 7 18 6 18 -9 6 -23 -18 -21 -38 3 -53 11 -7 20
-18 20 -25 0 -18 -17 -16 -23 2 -8 20 -77 53 -127 61 -39 6 -41 8 -21 19 l22
11 -21 19 c-20 18 -20 20 -4 32 23 17 86 17 128 -1z m-129 -36 c3 -5 -1 -10
-9 -10 -9 0 -16 -5 -16 -12 0 -6 -2 -9 -5 -6 -7 7 5 38 15 38 5 0 12 -4 15
-10z m513 -17 c-15 -2 -42 -2 -60 0 -18 2 -6 4 27 4 33 0 48 -2 33 -4z m372
-7 c0 -21 -94 -52 -175 -59 -45 -3 -59 -2 -40 3 21 6 2 8 -65 8 -52 0 -102 2
-110 5 -8 3 -38 8 -67 11 -28 4 -69 13 -90 21 -22 9 -27 13 -12 10 123 -23
509 -57 414 -36 -28 6 -26 8 20 15 39 6 94 21 123 35 1 0 2 -5 2 -13z m-624
-97 c3 -41 2 -92 -3 -114 -8 -34 -9 -27 -9 45 1 47 -3 103 -7 125 -7 30 -6 37
3 29 6 -6 14 -45 16 -85z m-193 51 c30 -11 61 -28 70 -38 27 -31 26 -120 -3
-153 -15 -19 -19 -20 -14 -5 6 16 4 17 -14 7 -30 -16 -49 -14 -72 9 -11 11
-20 18 -20 16 0 -2 -3 -11 -6 -20 -4 -10 5 -20 25 -30 39 -21 70 -20 101 1
l25 17 -20 -23 c-17 -19 -27 -22 -63 -18 -75 8 -112 64 -112 167 0 97 12 104
103 70z m279 -74 c-3 -39 -7 -54 -13 -45 -12 19 -11 53 3 84 15 32 15 31 10
-39z m459 -32 c-12 -32 -28 -65 -36 -73 -12 -13 -15 -11 -24 10 -23 63 -69 62
-116 -4 -30 -41 -32 -42 -90 -42 l-59 0 -18 55 c-9 30 -17 68 -17 83 l-1 28
68 -8 c87 -10 250 -7 282 5 14 5 26 8 28 7 2 -1 -6 -29 -17 -61z m-584 14 c-3
-7 -5 -2 -5 12 0 14 2 19 5 13 2 -7 2 -19 0 -25z m493 -108 c0 -4 -13 -10 -29
-12 -28 -4 -29 -4 -14 19 12 18 19 21 29 12 8 -6 14 -15 14 -19z m25 -51 c7
-19 7 -20 21 -2 22 29 16 0 -16 -84 -48 -121 -63 -154 -83 -179 -63 -80 -235
-1 -307 142 l-35 68 -5 -34 -5 -35 -13 34 c-9 27 -9 37 1 50 29 37 40 40 75
19 17 -11 38 -18 45 -15 7 3 1 9 -15 15 -14 6 -29 15 -32 20 -3 6 17 2 44 -9
73 -28 164 -25 232 6 65 30 85 31 93 4z m-849 -73 c-18 -24 -42 -64 -52 -90
-10 -25 -22 -46 -26 -46 -12 0 -10 13 7 54 20 48 10 46 -15 -4 -23 -46 -45
-55 -29 -13 11 29 56 93 73 105 6 4 14 4 20 1 5 -3 6 -1 2 5 -3 6 -2 13 4 17
5 3 10 1 10 -6 0 -13 14 -3 16 12 3 19 4 20 14 14 5 -3 -6 -25 -24 -49z m407
-115 l22 -24 -22 12 c-24 12 -73 88 -73 112 0 8 12 -6 26 -31 14 -25 35 -56
47 -69z m-375 24 c-6 -14 -13 -23 -15 -21 -5 5 15 46 22 46 3 0 -1 -11 -7 -25z
m421 -108 c36 -16 96 -37 135 -48 l71 -19 -71 3 c-109 6 -236 70 -288 146 -40
58 -31 58 32 0 31 -29 86 -66 121 -82z m-584 12 c5 -5 0 -9 -16 -9 -38 0 -67
-27 -80 -73 -23 -85 -40 -216 -46 -357 -6 -119 -8 -138 -16 -105 -23 103 18
480 59 543 14 21 21 23 52 17 21 -4 41 -11 47 -16z m1186 -5 c5 -2 6 -11 3
-18 -4 -11 -13 -10 -50 3 -24 9 -44 20 -44 25 0 8 75 1 91 -10z m-1361 -27 c0
-6 -11 -86 -25 -177 -14 -91 -25 -207 -25 -258 l0 -92 -42 21 c-24 12 -55 30
-70 41 -35 24 -35 17 1 -47 l29 -51 -58 4 c-79 6 -90 0 -49 -25 24 -16 29 -23
19 -27 -8 -2 -40 -12 -70 -20 -30 -9 -66 -23 -80 -32 -25 -15 -25 -15 12 -10
43 5 43 -11 0 -36 -33 -20 -86 -71 -115 -112 -24 -33 -15 -30 59 26 51 38 159
88 191 88 14 0 14 -3 -4 -22 -60 -67 -102 -186 -104 -293 l-1 -60 -19 40 c-10
22 -19 64 -20 95 l-1 55 -15 -45 c-9 -29 -13 -68 -10 -108 5 -61 4 -64 -17
-58 -11 3 -26 6 -33 6 -22 0 -36 70 -30 149 l6 76 -34 -54 c-30 -47 -54 -120
-56 -169 0 -11 -4 -9 -11 8 -5 14 -7 49 -5 78 3 28 4 52 2 52 -3 0 -11 -12
-19 -27 l-15 -28 0 25 c-1 39 25 126 54 183 l26 52 -32 -37 c-17 -21 -35 -36
-40 -32 -5 3 -6 -1 -3 -9 3 -8 1 -18 -5 -22 -15 -9 -14 19 3 59 30 72 116 142
209 171 l42 14 -35 0 c-32 0 -96 -11 -143 -25 -17 -5 -17 -3 2 34 25 49 41 55
128 47 68 -7 68 -7 91 24 14 19 28 29 35 25 7 -4 9 -4 5 1 -8 8 21 65 32 65
14 0 110 131 110 150 0 12 7 20 18 20 9 0 23 9 29 19 11 17 6 27 -34 78 -26
32 -50 60 -54 63 -18 13 71 89 126 108 40 14 45 14 45 -1z m1415 -6 c7 -12
-12 -24 -25 -16 -11 7 -4 25 10 25 5 0 11 -4 15 -9z m-905 -95 c141 -46 274
-89 297 -95 l41 -11 -34 -34 c-19 -19 -34 -42 -34 -51 0 -17 -18 -17 -64 1 -9
3 -16 1 -16 -5 0 -6 -4 -11 -10 -11 -5 0 -7 6 -4 14 4 10 -6 18 -32 25 -31 9
-40 8 -51 -7 -13 -16 -14 -15 -10 5 4 17 -1 24 -24 32 -23 8 -30 7 -39 -7 -8
-15 -9 -15 -10 4 0 16 -8 23 -32 28 -19 4 -34 2 -36 -4 -2 -5 -8 -10 -14 -10
-6 0 -8 7 -4 15 4 10 -4 17 -27 23 -18 5 -33 5 -35 0 -5 -12 -22 -10 -19 3 3
16 -56 36 -61 21 -2 -7 -8 -12 -13 -12 -4 0 -6 7 -3 14 9 23 -57 38 -73 17
-11 -14 -12 -13 -13 7 0 12 -4 22 -9 22 -5 0 -21 4 -35 10 -22 8 -24 13 -16
34 5 13 17 34 27 46 26 31 56 25 353 -74z m775 24 c32 -11 68 -20 79 -20 21 1
21 1 1 16 -19 14 -17 15 20 8 22 -3 41 -8 43 -9 3 -3 -14 -40 -22 -52 -5 -7
-181 56 -184 65 -5 15 -5 15 63 -8z m340 -30 c49 -17 92 -33 96 -38 4 -4 -7
-21 -24 -38 -31 -29 -34 -30 -72 -18 -31 9 -36 13 -22 19 23 10 22 25 -2 25
-19 0 -38 17 -29 25 2 2 26 -2 53 -11 66 -19 83 -12 21 9 -62 21 -76 21 -92 0
-9 -12 -13 -14 -14 -5 0 10 -4 10 -16 -2 -16 -17 -35 -19 -71 -10 -18 5 -20 9
-11 28 8 19 35 33 89 45 3 0 45 -13 94 -29z m-585 5 c0 -10 -73 -35 -99 -34
-22 1 -21 2 9 9 19 4 46 12 60 18 31 13 30 13 30 7z m-1224 -61 c19 -19 34
-39 34 -44 0 -5 -19 -31 -42 -58 -24 -27 -74 -87 -113 -135 -43 -53 -76 -85
-85 -83 -8 3 -36 7 -62 11 -46 6 -59 17 -39 30 5 3 31 1 58 -5 l48 -11 44 48
c24 26 55 64 69 83 15 19 41 53 59 74 18 22 33 43 33 48 0 16 -49 58 -66 58
-15 0 -13 -5 9 -28 l27 -28 -64 -79 c-108 -136 -116 -143 -158 -137 -21 2 -38
9 -38 14 0 35 208 278 238 278 8 0 30 -16 48 -36z m1383 -2 c12 -22 11 -23 -8
-12 -22 11 -26 22 -14 33 7 8 7 9 22 -21z m64 21 c-7 -2 -19 -2 -25 0 -7 3 -2
5 12 5 14 0 19 -2 13 -5z m-1056 -44 c136 -36 593 -190 593 -199 0 -5 -12 -5
-27 0 -60 19 -590 192 -628 205 -63 21 -24 17 62 -6z m1051 -23 c45 -15 82
-32 82 -38 0 -6 -8 -7 -17 -3 -58 22 -168 53 -175 49 -10 -6 -11 10 -1 20 4 3
12 5 17 3 6 -2 48 -16 94 -31z m84 2 c-7 -7 -12 -8 -12 -2 0 6 3 14 7 17 3 4
9 5 12 2 2 -3 -1 -11 -7 -17z m393 -8 c-9 -16 -18 -30 -21 -30 -9 0 8 44 20
52 17 12 17 10 1 -22z m-735 9 c12 -9 12 -10 -4 -5 -15 5 -17 2 -13 -14 6 -21
-8 -28 -16 -7 -5 14 2 37 12 37 3 0 13 -5 21 -11z m572 -18 c37 -13 70 -27 74
-32 6 -10 -155 46 -165 57 -3 4 1 5 9 2 8 -3 45 -15 82 -27z m-156 -14 c-5 9
-2 11 8 7 9 -3 13 -11 10 -16 -4 -6 2 -7 16 -3 15 5 20 4 16 -3 -6 -10 15 -18
99 -38 17 -4 33 -7 38 -6 10 3 9 -5 -8 -38 -9 -17 -23 -29 -33 -29 -15 1 -15
2 0 6 9 2 19 11 22 19 6 16 -5 21 -111 54 -81 25 -98 34 -88 49 5 9 11 9 23
-1 12 -10 14 -10 8 -1z m-536 -17 c0 -20 -24 -60 -34 -57 -20 7 3 67 25 67 5
0 9 -4 9 -10z m99 -26 c6 -6 -20 -34 -28 -30 -4 3 -13 1 -21 -4 -12 -7 -12
-15 4 -47 l18 -38 -26 24 c-35 33 -41 57 -21 87 13 21 22 24 43 19 15 -4 29
-8 31 -11z m154 -40 c48 -15 87 -30 87 -33 0 -3 -10 -17 -21 -31 -14 -17 -22
-21 -26 -12 -2 6 -9 9 -15 6 -15 -10 -128 27 -121 39 3 6 1 7 -5 4 -18 -12
-42 4 -42 29 0 32 30 32 143 -2z m-867 5 c24 -6 44 -16 44 -21 0 -10 -28 -6
-75 12 -14 5 -25 12 -25 15 0 7 5 7 56 -6z m1169 1 c13 -6 15 -9 5 -9 -8 0
-22 4 -30 9 -18 12 -2 12 25 0z m253 -22 c4 -21 -29 -40 -49 -27 -12 8 -11 12
5 24 16 12 17 15 4 15 -9 0 -19 -7 -22 -16 -4 -9 -9 -15 -11 -12 -3 3 -3 13 1
22 9 23 68 18 72 -6z m-1248 -38 c47 -16 95 -30 108 -30 12 0 22 -4 22 -9 0
-16 37 -18 79 -4 53 18 61 12 22 -16 l-31 -22 -145 47 c-80 26 -145 51 -145
55 0 12 -6 13 90 -21z m869 11 c11 -7 5 -13 -25 -25 -59 -25 -68 -42 -41 -80
l22 -31 -25 16 c-33 22 -38 67 -10 102 22 27 53 34 79 18z m-1065 -10 c5 -8
-25 -40 -51 -55 -9 -5 -9 2 -2 26 5 18 9 34 9 35 0 7 39 2 44 -6z m1261 -38
c60 -18 115 -31 123 -28 7 3 10 0 7 -6 -4 -6 3 -7 19 -3 22 5 26 3 26 -16 0
-14 -5 -20 -12 -17 -7 2 -74 23 -148 47 -74 23 -142 49 -150 58 -13 13 -13 14
5 7 11 -4 69 -23 130 -42z m-1036 -19 c2 -2 -5 -4 -17 -4 -30 0 -176 -47 -252
-81 -63 -29 -63 -29 -42 -6 61 65 271 126 311 91z m1261 6 c0 -5 -7 -10 -15
-10 -8 0 -15 5 -15 10 0 6 7 10 15 10 8 0 15 -4 15 -10z m-274 -20 c19 -8 24
-14 17 -21 -13 -13 -83 6 -83 22 0 12 32 11 66 -1z m399 -30 c3 -5 2 -10 -4
-10 -5 0 -13 5 -16 10 -3 6 -2 10 4 10 5 0 13 -4 16 -10z m-722 -36 c61 -20
115 -39 119 -43 3 -3 -1 -29 -9 -57 l-16 -52 -51 18 c-67 23 -148 70 -122 70
18 0 17 2 -6 28 -25 26 -46 72 -33 72 3 0 56 -16 118 -36z m475 15 c12 -5 22
-15 22 -23 0 -13 -6 -13 -47 -1 -27 8 -49 15 -50 15 -1 0 0 7 3 15 6 16 16 15
72 -6z m-110 -30 c68 -23 121 -43 118 -46 -6 -6 -116 26 -206 61 -103 40 -47
30 88 -15z m422 31 c0 -5 -4 -10 -9 -10 -6 0 -13 5 -16 10 -3 6 1 10 9 10 9 0
16 -4 16 -10z m37 -44 c196 -62 532 -166 539 -166 10 0 -40 -75 -63 -93 -12
-10 -25 -26 -28 -37 -10 -30 -25 -14 -25 26 0 39 -22 47 -42 14 -20 -32 -38
-24 -38 15 0 43 -23 47 -43 8 -14 -26 -15 -26 -26 -5 -6 11 -8 28 -5 36 8 21
-14 21 -37 0 -22 -20 -39 -10 -39 22 0 27 -12 31 -30 9 -21 -25 -48 -19 -43 9
7 34 -13 41 -33 11 -24 -36 -46 -33 -42 7 4 39 -18 49 -33 14 -10 -20 -15 -23
-26 -15 -7 6 -13 22 -13 35 0 27 -12 31 -30 9 -7 -8 -18 -15 -25 -15 -8 0 -16
-6 -19 -12 -3 -7 -4 4 -1 25 5 29 3 37 -10 37 -8 0 -21 -11 -27 -25 -8 -19
-14 -22 -24 -14 -7 6 -10 17 -7 25 3 8 2 21 -1 30 -6 15 -9 15 -29 -5 -27 -25
-47 -27 -47 -5 0 11 -6 13 -19 9 -18 -5 -19 -3 -11 25 14 48 27 59 78 63 26 2
50 4 54 5 4 1 69 -18 145 -42z m20 28 c-3 -3 -12 -4 -19 -1 -8 3 -5 6 6 6 11
1 17 -2 13 -5z m-1425 -24 c5 0 -5 -18 -22 -40 -18 -23 -38 -60 -45 -83 -13
-41 -13 -42 -20 -14 -15 57 28 156 62 143 8 -3 19 -6 25 -6z m308 0 c19 -5 44
-20 55 -33 12 -13 51 -32 92 -45 l73 -23 -22 -30 c-30 -40 -60 -38 -84 6 -30
53 -84 8 -127 -106 -15 -41 -38 -86 -52 -102 -21 -24 -31 -27 -75 -25 -38 2
-54 7 -61 20 -5 10 -26 25 -45 33 -23 9 -33 19 -28 26 4 7 3 9 -4 5 -6 -3 -16
2 -22 11 -10 16 -11 15 -6 -7 5 -24 4 -24 -9 -6 -24 32 -19 141 9 202 32 68
64 83 181 84 50 0 106 -4 125 -10z m1177 4 c-3 -3 -12 -4 -19 -1 -8 3 -5 6 6
6 11 1 17 -2 13 -5z m48 -14 c3 -5 -1 -10 -10 -10 -9 0 -13 5 -10 10 3 6 8 10
10 10 2 0 7 -4 10 -10z m-695 -33 c41 -13 112 -34 158 -47 53 -16 82 -29 82
-38 0 -8 -6 -12 -13 -9 -27 10 -213 66 -257 77 -66 16 -72 19 -65 30 8 14 10
13 95 -13z m765 13 c3 -5 -1 -10 -9 -10 -9 0 -16 5 -16 10 0 6 4 10 9 10 6 0
13 -4 16 -10z m-665 -10 c0 -5 -5 -10 -11 -10 -5 0 -7 5 -4 10 3 6 8 10 11 10
2 0 4 -4 4 -10z m730 -16 c0 -2 -7 -4 -15 -4 -8 0 -15 4 -15 10 0 5 7 7 15 4
8 -4 15 -8 15 -10z m-1784 -76 c-10 -76 -25 -102 -39 -66 -9 26 9 129 25 139
22 14 24 1 14 -73z m1834 62 c0 -5 -7 -7 -15 -4 -8 4 -15 8 -15 10 0 2 7 4 15
4 8 0 15 -4 15 -10z m370 1 c0 -18 -17 -20 -36 -6 -18 14 -18 14 9 15 15 0 27
-4 27 -9z m-2281 -43 c-15 -53 -10 -123 11 -172 l19 -45 -27 -19 c-43 -30
-210 -125 -299 -170 l-82 -42 -10 37 c-15 53 -14 105 5 177 17 65 66 166 93
189 13 12 246 74 288 76 8 1 9 -8 2 -31z m1971 22 c0 -5 -7 -7 -15 -4 -8 4
-15 8 -15 10 0 2 7 4 15 4 8 0 15 -4 15 -10z m-1029 -20 c10 0 19 5 19 10 0 6
4 10 10 10 14 0 1 -27 -16 -34 -21 -8 -44 4 -43 23 0 10 2 11 6 4 2 -7 13 -13
24 -13z m1315 12 c8 -4 8 -15 3 -31 -7 -17 -14 -21 -27 -16 -9 4 -25 9 -34 12
-14 4 -15 8 -5 24 12 19 43 25 63 11z m-229 -8 c-3 -3 -12 -4 -19 -1 -8 3 -5
6 6 6 11 1 17 -2 13 -5z m-910 -35 c40 -12 70 -25 68 -30 -3 -4 3 -10 14 -14
18 -6 19 -7 3 -45 l-17 -39 -65 -4 -65 -3 71 -2 c71 -2 72 -2 84 28 17 42 22
33 8 -14 l-12 -39 -120 7 c-65 3 -140 6 -165 6 -34 0 -42 3 -33 12 6 6 43 11
89 11 55 0 62 1 26 4 -59 5 -63 11 -38 70 19 46 43 73 64 73 9 0 49 -10 88
-21z m983 11 c8 -5 11 -10 5 -10 -5 0 -17 5 -25 10 -8 5 -10 10 -5 10 6 0 17
-5 25 -10z m-2473 -28 c-15 -15 -39 -57 -54 -92 -24 -56 -27 -78 -27 -165 0
-81 4 -109 22 -148 25 -55 14 -53 -29 5 l-29 41 0 -37 c0 -21 5 -47 11 -58 8
-15 8 -19 0 -14 -19 12 -50 82 -62 138 l-12 52 -11 -34 c-7 -19 -12 -45 -11
-58 4 -42 -23 -3 -35 51 -20 94 1 189 61 272 39 55 79 74 148 75 l55 0 -27
-28z m1187 -20 c22 -15 41 -33 44 -39 7 -22 -27 -26 -72 -9 -64 25 -80 39 -71
65 6 19 12 22 33 16 15 -3 45 -18 66 -33z m413 2 c-3 -3 -12 -4 -19 -1 -8 3
-5 6 6 6 11 1 17 -2 13 -5z m-597 -46 c54 -40 30 -84 -28 -54 -33 17 -52 38
-31 34 7 -2 14 3 15 10 1 6 2 17 3 22 2 15 8 13 41 -12z m1078 -13 c1 -1 -6
-13 -16 -25 -17 -21 -23 -23 -53 -14 -40 11 -45 35 -9 45 21 5 68 2 78 -6z
m-145 -25 c-18 -32 -63 -43 -63 -16 0 18 38 46 63 46 17 0 17 -1 0 -30z m239
-13 c35 -26 44 -40 46 -69 3 -30 0 -36 -15 -34 -27 2 -83 56 -83 80 0 17 -2
18 -10 6 -14 -23 -24 -3 -12 25 15 32 22 32 74 -8z m408 -12 c0 -2 -9 -9 -20
-15 -16 -9 -20 -8 -20 5 0 8 9 15 20 15 11 0 20 -2 20 -5z m116 -15 c91 -31
88 -30 77 -41 -11 -11 -153 37 -153 52 0 13 10 11 76 -11z m-1754 -17 c34 -33
36 -53 5 -53 -38 0 -61 23 -53 53 8 34 13 34 48 0z m1543 17 c3 -6 -1 -7 -9
-4 -18 7 -21 14 -7 14 6 0 13 -4 16 -10z m358 -16 c8 -9 -13 -52 -29 -58 -9
-4 -14 2 -14 17 0 32 26 57 43 41z m-772 -22 c15 -9 56 -48 93 -86 64 -67 66
-71 55 -98 -15 -37 -71 -85 -133 -114 -58 -27 -98 -30 -119 -9 -8 8 -16 12
-18 11 -2 -2 -10 2 -17 10 -7 8 -10 14 -7 14 3 0 -4 9 -15 20 -19 19 -28 70
-13 70 8 0 110 -109 106 -114 -8 -8 35 2 56 13 l23 13 -33 20 c-40 24 -52 40
-37 49 7 4 7 9 -1 13 -6 4 -16 4 -23 0 -7 -4 -8 -3 -4 4 4 7 2 12 -3 12 -6 0
-11 7 -11 15 0 9 -6 12 -15 9 -12 -5 -13 -1 -4 25 6 17 17 31 24 31 15 0 61
-42 112 -103 34 -40 53 -46 78 -21 19 19 16 36 -8 40 -28 4 -83 56 -106 99
-11 22 -21 34 -21 28 0 -7 -4 -13 -10 -13 -5 0 -10 15 -10 33 0 52 16 59 61
29z m-91 0 c0 -5 -6 -16 -13 -26 -10 -13 -24 -17 -57 -14 -51 3 -63 27 -20 39
36 10 90 10 90 1z m982 -18 c40 -15 74 -27 76 -29 1 -1 -5 -19 -13 -39 -14
-34 -19 -37 -43 -31 -44 10 -132 53 -132 64 0 20 20 61 29 61 5 0 43 -12 83
-26z m-1595 -7 c-3 -12 -13 -58 -23 -102 -14 -60 -19 -121 -19 -243 0 -157 -1
-163 -20 -160 -15 2 -22 14 -28 53 -13 89 7 302 42 432 8 29 16 39 32 40 17 2
20 -2 16 -20z m79 6 c-26 -88 -40 -214 -41 -359 0 -147 -1 -160 -17 -156 -25
6 -33 58 -33 207 1 89 6 155 19 210 22 98 31 115 57 115 15 0 19 -5 15 -17z
m71 -6 c-26 -68 -42 -196 -42 -340 1 -136 -1 -157 -15 -155 -43 9 -36 362 10
483 6 16 17 25 31 25 13 0 19 -5 16 -13z m820 -19 c32 -12 53 -23 46 -25 -6
-2 -28 3 -48 11 -51 22 -64 20 -71 -9 -9 -36 -17 -23 -9 14 8 37 8 37 82 9z
m-1458 -14 c26 -33 26 -44 3 -44 -25 0 -42 19 -42 47 0 30 14 29 39 -3z m1579
-21 c-3 -19 -48 -32 -48 -14 0 10 28 30 43 31 5 0 7 -8 5 -17z m-937 -53 c-6
-28 -11 -119 -12 -203 -1 -123 -3 -143 -11 -107 -11 55 -4 246 13 317 16 68
25 61 10 -7z m387 54 c30 -6 31 -7 15 -30 -15 -24 -37 -30 -67 -18 -19 7 -21
40 -3 47 17 8 21 8 55 1z m599 -39 c-5 -19 -14 -32 -19 -29 -11 7 -10 31 3 55
16 31 28 13 16 -26z m-1827 -2 c45 -5 50 -8 30 -14 -34 -10 -173 -11 -251 -2
l-64 8 45 6 c66 9 177 10 240 2z m1188 -53 c4 0 7 -16 7 -35 0 -39 -18 -47
-35 -16 -16 31 -13 64 6 57 9 -3 19 -6 22 -6z m-148 -35 c-18 -19 -36 -32 -39
-29 -6 6 54 64 66 64 4 0 -8 -16 -27 -35z m-1884 -113 c28 -23 34 -32 20 -32
-43 0 -90 55 -111 130 -4 16 4 9 23 -21 16 -25 47 -60 68 -77z m500 73 c25
-25 25 -27 22 -165 -2 -117 -6 -142 -20 -157 -16 -15 -18 -15 -18 -1 0 13 -10
15 -61 12 -54 -3 -109 10 -96 23 3 2 39 5 81 6 56 2 79 6 86 17 11 16 14 209
4 234 -15 40 -24 7 -24 -92 0 -71 -4 -112 -12 -120 -17 -17 -111 -16 -106 1 3
7 26 13 56 15 29 2 52 7 52 13 0 5 -7 9 -15 9 -10 0 -15 10 -15 30 0 23 -4 30
-20 30 -26 0 -25 4 10 67 17 29 30 57 30 63 0 5 -21 10 -47 10 -71 0 -34 24
45 29 13 0 34 -10 48 -24z m371 3 c21 -20 23 -29 23 -133 0 -62 -3 -127 -6
-144 l-6 -31 -99 0 c-97 0 -147 10 -161 33 -4 7 -8 67 -8 134 0 119 0 122 26
142 23 18 41 21 117 21 79 0 94 -3 114 -22z m387 1 c26 -20 26 -22 26 -153 0
-93 -4 -137 -13 -150 -11 -16 -27 -17 -127 -14 -110 3 -115 4 -127 28 -8 16
-13 68 -13 143 0 112 1 119 25 142 22 23 32 25 113 25 75 0 93 -3 116 -21z
m-967 -166 c-2 -27 -3 -5 -3 47 0 52 1 74 3 48 2 -27 2 -69 0 -95z m1744 7
c15 -7 48 -10 73 -9 24 2 42 1 40 -3 -9 -14 36 5 52 23 27 29 34 23 34 -29 0
-68 -34 -132 -84 -156 -95 -46 -206 -23 -241 50 -14 30 -15 43 -5 81 6 25 20
64 31 86 l21 39 25 -35 c14 -19 38 -41 54 -47z m-1621 -25 c0 -10 -11 -15 -35
-15 -24 0 -35 5 -35 15 0 10 11 15 35 15 24 0 35 -5 35 -15z m1858 -243 c-25
-48 -85 -96 -133 -106 -22 -5 -26 -4 -15 4 11 7 4 10 -30 10 -25 0 -65 9 -89
20 -47 22 -52 38 -7 20 42 -15 106 -12 152 9 53 24 65 43 16 25 -54 -19 -73
-16 -31 6 47 25 102 83 131 137 l23 43 3 -61 c2 -49 -2 -71 -20 -107z m-1752
24 c-4 -31 -12 -58 -17 -61 -5 -4 -6 8 -3 27 5 29 4 31 -7 13 -20 -33 -42 -44
-81 -45 -33 0 -38 3 -38 23 0 55 10 67 55 67 27 0 51 7 66 19 13 11 26 18 28
16 2 -2 0 -29 -3 -59z m364 16 c0 -78 -13 -87 -115 -85 -99 1 -125 15 -125 67
l0 31 97 1 c119 1 133 4 133 21 0 7 2 13 5 13 3 0 5 -22 5 -48z m385 -6 c-12
-76 -20 -81 -125 -81 -84 0 -93 2 -111 24 -10 13 -19 38 -19 56 l0 33 31 -15
c48 -24 189 -13 208 16 19 30 24 20 16 -33z m1683 -137 c106 -22 197 -117 221
-231 14 -65 14 -986 0 -1048 -14 -64 -51 -114 -106 -147 l-48 -28 -180 1
c-361 3 -542 44 -654 149 -84 79 -82 63 -79 605 3 463 4 476 25 522 30 66 95
132 154 157 27 12 85 26 127 31 99 11 472 4 540 -11z m-1327 2 c121 -10 175
-29 239 -87 24 -22 54 -61 66 -89 22 -47 24 -62 24 -242 0 -164 -3 -197 -19
-235 -22 -51 -86 -112 -141 -134 l-39 -16 35 -30 c19 -17 53 -63 76 -102 22
-39 61 -104 85 -143 23 -40 43 -76 43 -80 0 -5 20 -39 44 -78 25 -38 44 -71
42 -72 -1 -1 -44 5 -96 13 -52 8 -146 20 -209 27 l-114 12 -48 85 c-47 84 -62
109 -143 245 l-41 70 -225 0 -225 0 3 -129 c2 -129 3 -130 40 -195 20 -37 38
-69 40 -72 1 -3 -73 -9 -165 -12 -92 -3 -205 -11 -250 -17 -45 -7 -88 -10 -97
-8 -11 2 -3 23 37 93 l52 89 3 462 3 463 -66 95 -65 96 502 -1 c277 0 550 -4
609 -8z"/>
<path d="M2461 4601 c27 -26 49 -55 49 -63 0 -8 -23 -29 -51 -47 -28 -17 -49
-34 -46 -38 4 -3 12 -1 19 5 22 17 100 34 157 33 49 0 52 1 35 14 -10 8 -25
15 -32 15 -7 0 -34 19 -60 43 -45 42 -105 87 -115 87 -2 0 18 -22 44 -49z"/>
<path d="M2503 3069 c-17 -17 -4 -39 23 -39 26 0 32 18 12 38 -15 15 -21 15
-35 1z m37 -20 c0 -5 -4 -9 -10 -9 -5 0 -10 7 -10 16 0 8 5 12 10 9 6 -3 10
-10 10 -16z"/>
<path d="M3207 3093 c-16 -16 -4 -30 39 -46 48 -17 74 -11 74 18 0 20 -97 44
-113 28z"/>
<path d="M3352 3048 c-20 -20 -14 -27 40 -43 38 -11 55 -12 65 -4 21 18 16 24
-34 42 -57 20 -56 20 -71 5z"/>
<path d="M3499 2999 c-6 -12 -9 -22 -7 -23 2 -2 39 -15 82 -29 59 -20 83 -24
93 -16 7 6 13 15 13 20 0 10 -51 33 -121 53 -47 14 -49 14 -60 -5z"/>
<path d="M3711 2931 c-13 -23 -13 -23 57 -46 37 -12 57 -14 64 -7 18 18 0 41
-42 52 -23 6 -47 13 -55 16 -7 3 -18 -4 -24 -15z"/>
<path d="M2007 3040 c-14 -11 -31 -37 -37 -58 -6 -20 -14 -44 -17 -52 -9 -24
-2 -72 13 -87 8 -8 14 -11 14 -7 0 3 6 2 13 -3 6 -5 38 -18 69 -28 49 -16 59
-17 74 -4 18 15 48 78 40 86 -2 2 -7 -5 -11 -17 -11 -36 -48 -42 -113 -19 -31
12 -63 29 -70 37 -26 34 21 148 66 158 45 10 48 12 16 13 -17 1 -43 -8 -57
-19z"/>
<path d="M2010 2989 c-31 -69 -27 -96 18 -115 20 -9 53 -17 72 -18 31 -1 37 3
53 36 10 20 21 52 24 70 4 29 1 36 -21 46 -14 6 -48 14 -76 18 l-50 7 -20 -44z
m43 -2 c-5 -8 -2 -8 9 0 17 15 78 -1 78 -19 0 -29 -25 -88 -37 -88 -8 0 -12 3
-10 8 3 4 -5 8 -16 8 -47 4 -62 11 -59 30 7 43 24 84 33 78 5 -3 6 -11 2 -17z"/>
<path d="M4310 2701 c-14 -28 -15 -27 32 -46 40 -16 43 -16 55 1 19 26 17 32
-17 49 -39 20 -57 19 -70 -4z m60 -11 c13 -8 13 -10 -2 -10 -9 0 -20 5 -23 10
-8 13 5 13 25 0z"/>
<path d="M2077 2385 c-6 -127 -10 -135 -62 -135 -21 0 -26 3 -16 9 11 7 9 10
-10 14 -13 2 -3 5 24 6 35 1 47 5 47 17 0 8 -4 12 -10 9 -5 -3 -11 1 -11 9 -1
9 -2 22 -3 29 -1 8 -22 13 -58 15 l-58 3 0 -31 c0 -19 -5 -30 -14 -30 -11 0
-16 23 -21 95 -4 52 -11 92 -16 89 -11 -7 -12 -225 0 -242 9 -15 204 -22 218
-8 12 11 16 232 5 251 -6 12 -11 -20 -15 -100z m-67 -61 c0 -11 -8 -14 -32
-12 -46 4 -49 28 -4 28 26 0 36 -4 36 -16z"/>
<path d="M2257 2478 c-2 -7 -5 -60 -6 -118 -3 -139 -1 -141 115 -147 125 -8
125 -7 122 151 -2 74 -7 120 -13 119 -12 -4 -12 -4 -14 -103 -1 -64 -4 -80
-16 -80 -10 0 -15 10 -15 30 0 30 -1 30 -55 30 l-55 0 0 -35 c0 -28 -4 -35
-20 -35 -19 0 -20 7 -20 100 0 89 -9 123 -23 88z m153 -153 c0 -10 -11 -15
-35 -15 -24 0 -35 5 -35 15 0 10 11 15 35 15 24 0 35 -5 35 -15z m50 -64 c0
-17 -31 -21 -101 -15 -101 10 -95 24 10 24 50 0 91 -4 91 -9z"/>
<path d="M3684 1656 c-18 -14 -19 -31 -22 -366 -3 -394 -4 -391 65 -409 21 -5
101 -13 179 -17 140 -6 141 -6 158 17 14 21 16 66 16 384 0 310 -2 364 -16
383 -15 21 -21 22 -188 22 -133 0 -177 -3 -192 -14z"/>
<path d="M2202 1603 c-2 -37 0 -89 3 -115 l7 -48 294 0 c352 0 334 -7 334 118
0 119 21 112 -336 112 l-299 0 -3 -67z"/>
<path d="M2954 4655 c-9 -23 16 -84 40 -100 12 -8 50 -19 85 -23 35 -5 67 -15
71 -22 4 -7 15 -10 23 -7 11 4 14 1 10 -9 -3 -8 1 -14 9 -14 8 0 24 -11 36
-25 13 -14 27 -23 32 -20 12 7 12 -32 0 -60 -5 -11 -9 -15 -10 -10 0 6 -7 2
-14 -8 -9 -12 -16 -14 -21 -8 -8 14 -25 14 -25 0 0 -5 4 -7 10 -4 6 4 7 -1 3
-11 -5 -15 -7 -15 -17 2 -6 11 -17 20 -24 22 -8 1 -11 -2 -7 -8 3 -5 1 -10 -4
-10 -6 0 -11 5 -11 10 0 6 -9 10 -19 10 -11 0 -66 11 -123 24 -175 42 -178 42
-178 13 0 -77 4 -80 108 -105 283 -66 586 -250 896 -542 37 -36 104 -90 148
-120 53 -37 84 -66 93 -87 l13 -32 -96 35 c-53 20 -92 31 -87 26 35 -32 179
-134 208 -148 26 -12 40 -28 51 -58 9 -23 16 -44 16 -48 0 -3 -41 3 -92 13
-50 11 -92 18 -94 16 -2 -1 45 -27 104 -57 140 -72 154 -89 75 -91 l-48 -1 46
-13 c63 -17 66 -19 74 -62 3 -21 9 -49 12 -62 5 -21 3 -23 -24 -17 -26 6 -31
4 -37 -16 -10 -39 -7 -44 34 -57 26 -8 44 -20 49 -34 6 -16 30 -30 85 -49 42
-15 76 -26 76 -25 0 21 -25 191 -36 247 -82 405 -320 802 -645 1074 -75 64
-90 72 -122 71 -38 -2 -45 3 -26 22 7 7 -14 26 -71 64 -44 30 -83 53 -85 52
-9 -5 -5 -18 5 -19 6 -1 15 -2 21 -3 6 0 9 -7 6 -14 -3 -8 5 -14 22 -15 14 -1
31 -9 37 -17 6 -8 17 -15 25 -15 11 0 11 -2 -1 -10 -8 -5 -11 -10 -6 -10 6 0
1 -7 -10 -15 -17 -13 -18 -14 -1 -15 10 0 20 7 23 15 4 8 11 15 17 15 5 0 2
-9 -7 -19 -10 -10 -14 -21 -9 -23 4 -3 2 -3 -5 -1 -7 1 -23 -2 -35 -9 -19 -10
-20 -9 -10 4 7 8 10 18 6 21 -3 4 -11 -1 -18 -10 -16 -22 -55 -28 -55 -8 0 8
5 15 11 15 5 0 8 4 4 9 -3 5 -1 12 5 16 5 3 10 -3 10 -14 0 -12 5 -21 11 -21
5 0 7 5 4 10 -6 9 8 14 28 11 5 -1 5 4 1 10 -4 8 -3 9 4 5 7 -4 12 0 12 10 0
16 -1 16 -19 0 -22 -20 -41 -14 -40 12 0 14 2 13 9 -3 5 -11 9 -14 9 -7 1 6 8
12 16 12 8 0 15 5 15 11 0 6 -6 9 -14 6 -8 -3 -17 -3 -20 1 -4 3 -14 7 -22 8
-12 2 -14 -3 -10 -21 5 -19 3 -23 -8 -19 -19 7 -16 42 4 50 12 5 10 8 -10 16
-44 19 -71 17 -80 -6 -4 -12 -6 -24 -3 -28 2 -5 -1 -8 -7 -8 -7 0 -9 13 -5 38
5 27 4 33 -4 22 -6 -8 -11 -11 -11 -7 0 4 -9 3 -20 -3 -11 -6 -18 -15 -15 -21
4 -5 2 -9 -3 -9 -5 0 -13 10 -18 23 -12 26 -3 89 9 69 5 -7 13 -10 18 -7 5 4
9 1 9 -4 0 -6 -7 -11 -16 -11 -10 0 -14 -5 -10 -16 4 -10 2 -13 -6 -8 -6 4 -8
3 -5 -4 14 -21 44 -1 45 30 0 22 -3 28 -14 24 -8 -3 -12 -2 -9 4 3 5 -4 7 -15
5 -11 -2 -18 0 -15 5 3 5 -3 7 -14 5 -11 -2 -25 3 -32 11 -10 13 -8 13 17 4
16 -6 30 -11 32 -11 1 1 4 0 7 0 3 -1 10 -3 15 -4 6 -1 17 -3 26 -4 11 -1 14
-9 12 -28 -2 -22 1 -28 17 -27 11 0 19 5 18 11 -1 6 6 9 17 6 11 -3 20 -12 20
-20 0 -8 5 -11 10 -8 6 3 10 9 10 13 0 10 -107 67 -153 82 -22 7 -51 18 -65
26 -14 7 -29 11 -33 9 -4 -3 -9 1 -12 9 -3 7 -33 22 -66 32 -34 10 -61 22 -61
26 0 5 -5 6 -10 3 -7 -4 -9 3 -6 18 5 31 -3 41 -21 26 -8 -7 -13 -8 -13 -1 0
12 26 23 34 14 12 -11 48 -13 41 -2 -4 6 -12 9 -18 7 -7 -2 -18 2 -25 10 -18
17 -61 17 -68 -2z m403 -237 c-3 -8 -6 -5 -6 6 -1 11 2 17 5 13 3 -3 4 -12 1
-19z m-71 -76 c11 -15 39 -8 29 8 -3 5 3 8 14 7 16 -1 18 -5 10 -19 -10 -18
-8 -19 23 -22 6 -1 12 7 14 17 4 30 14 33 14 4 0 -15 4 -27 10 -27 5 0 6 7 3
17 -4 11 -3 14 5 9 7 -4 12 -3 12 3 0 5 -6 12 -12 14 -8 4 -7 6 3 6 19 1 31
-33 17 -47 -7 -7 -3 -12 10 -17 21 -6 20 -35 0 -35 -5 0 -7 4 -3 9 3 5 0 13
-6 17 -8 4 -9 3 -5 -4 4 -7 1 -12 -6 -12 -9 -1 -7 -5 5 -14 9 -7 17 -19 16
-27 0 -10 -2 -11 -6 -1 -2 6 -9 10 -14 6 -5 -3 -9 -1 -9 4 0 5 -7 9 -15 10 -8
1 -22 3 -30 4 -8 1 -11 6 -8 11 4 6 0 8 -10 4 -19 -7 -35 11 -32 36 2 10 -2
16 -8 14 -7 -3 -11 -10 -9 -16 1 -7 -2 -9 -9 -5 -6 4 -21 7 -32 8 -11 1 -22 7
-25 15 -3 9 0 11 8 6 9 -5 10 -2 6 12 -8 24 23 28 40 5z m500 -433 c57 -54
151 -159 142 -159 -2 0 -64 62 -138 137 -130 131 -132 144 -4 22z"/>
<path d="M3267 4324 c3 -7 9 -14 14 -14 14 0 10 17 -5 23 -10 4 -13 1 -9 -9z"/>
<path d="M3329 4301 c11 -7 11 -10 0 -14 -11 -5 -10 -6 1 -5 8 1 25 -3 37 -10
18 -10 24 -9 37 4 21 20 20 21 -9 26 -19 4 -23 2 -15 -7 7 -8 5 -12 -5 -12 -8
0 -16 6 -19 14 -3 7 -13 13 -23 13 -14 0 -15 -2 -4 -9z"/>
<path d="M3095 4631 c-3 -5 -2 -12 3 -15 5 -3 9 1 9 9 0 17 -3 19 -12 6z"/>
<path d="M3030 4616 c0 -2 8 -10 18 -17 15 -13 16 -12 3 4 -13 16 -21 21 -21
13z"/>
<path d="M3375 4390 c-3 -6 1 -7 9 -4 18 7 21 14 7 14 -6 0 -13 -4 -16 -10z"/>
<path d="M2962 4133 c-22 -9 -34 -41 -22 -63 11 -20 35 -25 64 -14 23 9 21 61
-3 74 -11 5 -21 10 -23 9 -2 0 -9 -3 -16 -6z"/>
<path d="M3266 4057 c-28 -20 -17 -52 18 -52 36 0 56 26 37 49 -16 19 -31 20
-55 3z"/>
<path d="M1443 4023 c-15 -6 -17 -49 -3 -58 20 -12 50 6 50 30 0 18 -21 40
-33 34 -1 0 -8 -3 -14 -6z"/>
<path d="M3060 3895 c-26 -32 13 -81 48 -59 34 22 22 74 -18 74 -10 0 -23 -7
-30 -15z"/>
<path d="M3369 3779 c-17 -34 3 -69 40 -69 33 0 47 25 37 66 -8 32 -60 34 -77
3z"/>
<path d="M1060 3725 c-15 -18 -5 -35 20 -35 10 0 22 5 25 10 7 11 -12 40 -25
40 -4 0 -13 -7 -20 -15z"/>
<path d="M3647 3734 c-14 -15 -6 -34 14 -34 14 0 19 5 17 17 -3 18 -20 27 -31
17z"/>
<path d="M3624 3575 c-4 -9 -2 -21 4 -27 15 -15 44 -1 40 19 -4 23 -36 29 -44
8z"/>
<path d="M3797 3543 c-26 -26 12 -80 47 -67 37 14 23 74 -18 74 -12 0 -26 -3
-29 -7z"/>
<path d="M3387 3502 c-30 -33 -15 -72 28 -72 43 0 59 44 27 73 -24 22 -35 21
-55 -1z"/>
<path d="M3627 3424 c-15 -16 -7 -53 14 -59 27 -9 42 6 37 36 -3 24 -36 38
-51 23z"/>
<path d="M3794 3305 c-4 -9 0 -23 8 -31 20 -20 50 -7 46 20 -4 26 -45 35 -54
11z"/>
<path d="M3464 3269 c-3 -6 -2 -15 4 -21 13 -13 32 -2 32 18 0 16 -26 19 -36
3z"/>
<path d="M3985 3261 c-9 -16 3 -31 26 -31 14 0 19 6 17 17 -4 20 -33 29 -43
14z"/>
<path d="M3667 3243 c-14 -13 -7 -34 11 -31 23 4 34 21 19 30 -15 10 -22 10
-30 1z"/>
<path d="M3767 2269 c-26 -15 -11 -29 34 -29 40 0 48 7 27 28 -15 15 -37 15
-61 1z"/>
<path d="M890 1555 l0 -115 220 0 c266 0 260 -3 260 113 0 122 10 117 -256
117 l-224 0 0 -115z"/>
<path d="M890 994 l0 -137 193 7 c225 8 264 16 278 54 15 37 7 175 -10 195
-12 15 -41 17 -237 17 l-224 0 0 -136z"/>
</g>
</svg>
